<?xml version="1.0" encoding="utf-8"?>
<!-- Generator: Adobe Illustrator 16.0.0, SVG Export Plug-In . SVG Version: 6.00 Build 0)  -->
<!DOCTYPE svg PUBLIC "-//W3C//DTD SVG 1.1//EN" "http://www.w3.org/Graphics/SVG/1.1/DTD/svg11.dtd">
<svg version="1.1" id="Layer_1" xmlns="http://www.w3.org/2000/svg" xmlns:xlink="http://www.w3.org/1999/xlink" x="0px" y="0px"
	 width="72px" height="72px" viewBox="0 0 72 72" enable-background="new 0 0 72 72" xml:space="preserve">
<g>
	<g>
		<path d="M60.5,21h-49C6.813,21,3,17.187,3,12.5S6.813,4,11.5,4h49c4.687,0,8.5,3.813,8.5,8.5S65.187,21,60.5,21z M11.5,8
			C9.019,8,7,10.019,7,12.5S9.019,17,11.5,17h49c2.481,0,4.5-2.019,4.5-4.5S62.981,8,60.5,8H11.5z"/>
	</g>
	<g>
		<path d="M60.5,68h-49C6.813,68,3,64.187,3,59.5S6.813,51,11.5,51h49c4.687,0,8.5,3.813,8.5,8.5S65.187,68,60.5,68z M11.5,55
			C9.019,55,7,57.019,7,59.5S9.019,64,11.5,64h49c2.481,0,4.5-2.019,4.5-4.5S62.981,55,60.5,55H11.5z"/>
	</g>
	<g>
		<path d="M60.5,45h-49C6.813,45,3,41.187,3,36.5S6.813,28,11.5,28h49c4.687,0,8.5,3.813,8.5,8.5S65.187,45,60.5,45z M11.5,32
			C9.019,32,7,34.019,7,36.5S9.019,41,11.5,41h49c2.481,0,4.5-2.019,4.5-4.5S62.981,32,60.5,32H11.5z"/>
	</g>
</g>
</svg>
