<?xml version="1.0" encoding="UTF-8" standalone="no"?>
<!-- Generator: Adobe Illustrator 16.0.0, SVG Export Plug-In . SVG Version: 6.00 Build 0)  -->

<svg
   xmlns:dc="http://purl.org/dc/elements/1.1/"
   xmlns:cc="http://creativecommons.org/ns#"
   xmlns:rdf="http://www.w3.org/1999/02/22-rdf-syntax-ns#"
   xmlns:svg="http://www.w3.org/2000/svg"
   xmlns="http://www.w3.org/2000/svg"
   xmlns:sodipodi="http://sodipodi.sourceforge.net/DTD/sodipodi-0.dtd"
   xmlns:inkscape="http://www.inkscape.org/namespaces/inkscape"
   version="1.1"
   id="Layer_1"
   x="0px"
   y="0px"
   width="72px"
   height="72px"
   viewBox="0 0 72 72"
   enable-background="new 0 0 72 72"
   xml:space="preserve"
   inkscape:version="0.48.5 r10040"
   sodipodi:docname="pushbutton-closed-1.svg"><metadata
     id="metadata21"><rdf:RDF><cc:Work
         rdf:about=""><dc:format>image/svg+xml</dc:format><dc:type
           rdf:resource="http://purl.org/dc/dcmitype/StillImage" /></cc:Work></rdf:RDF></metadata><defs
     id="defs19"><filter
       inkscape:label="Invert"
       x="0"
       y="0"
       width="1"
       height="1"
       inkscape:menu="Color"
       inkscape:menu-tooltip="Invert colors"
       color-interpolation-filters="sRGB"
       id="filter2998"><feColorMatrix
         type="saturate"
         values="1"
         result="fbSourceGraphic"
         id="feColorMatrix3000" /><feColorMatrix
         in="fbSourceGraphic"
         values="-1 0 0 0 1 0 -1 0 0 1 0 0 -1 0 1 0 0 0 1 0 "
         id="feColorMatrix3002" /></filter></defs><sodipodi:namedview
     pagecolor="#ffffff"
     bordercolor="#666666"
     borderopacity="1"
     objecttolerance="10"
     gridtolerance="10"
     guidetolerance="10"
     inkscape:pageopacity="0"
     inkscape:pageshadow="2"
     inkscape:window-width="640"
     inkscape:window-height="480"
     id="namedview17"
     showgrid="false"
     inkscape:zoom="3.2777778"
     inkscape:cx="36"
     inkscape:cy="36"
     inkscape:window-x="0"
     inkscape:window-y="0"
     inkscape:window-maximized="0"
     inkscape:current-layer="Layer_1" /><g
     id="g3"
     style="filter:url(#filter2998)"><g
       id="g5"><path
         d="M60.5,21h-49C6.813,21,3,17.187,3,12.5S6.813,4,11.5,4h49c4.687,0,8.5,3.813,8.5,8.5S65.187,21,60.5,21z M11.5,8    C9.019,8,7,10.019,7,12.5S9.019,17,11.5,17h49c2.481,0,4.5-2.019,4.5-4.5S62.981,8,60.5,8H11.5z"
         id="path7" /></g><g
       id="g9"><path
         d="M60.5,68h-49C6.813,68,3,64.187,3,59.5S6.813,51,11.5,51h49c4.687,0,8.5,3.813,8.5,8.5S65.187,68,60.5,68z M11.5,55    C9.019,55,7,57.019,7,59.5S9.019,64,11.5,64h49c2.481,0,4.5-2.019,4.5-4.5S62.981,55,60.5,55H11.5z"
         id="path11" /></g><g
       id="g13"><path
         d="M60.5,45h-49C6.813,45,3,41.187,3,36.5S6.813,28,11.5,28h49c4.687,0,8.5,3.813,8.5,8.5S65.187,45,60.5,45z M11.5,32    C9.019,32,7,34.019,7,36.5S9.019,41,11.5,41h49c2.481,0,4.5-2.019,4.5-4.5S62.981,32,60.5,32H11.5z"
         id="path15" /></g></g></svg>