<?xml version="1.0" encoding="UTF-8" standalone="no"?>
<!-- Created with Inkscape (http://www.inkscape.org/) -->
<svg id="svg2" xmlns:rdf="http://www.w3.org/1999/02/22-rdf-syntax-ns#" xmlns="http://www.w3.org/2000/svg" height="255.64" width="1274.2" version="1.0" xmlns:cc="http://creativecommons.org/ns#" xmlns:xlink="http://www.w3.org/1999/xlink" xmlns:dc="http://purl.org/dc/elements/1.1/">
 <defs id="defs4">
  <filter id="filter3165" color-interpolation-filters="sRGB">
   <feGaussianBlur id="feGaussianBlur3167" stdDeviation="1.6486862"/>
  </filter>
 </defs>
 <metadata id="metadata7">
  <rdf:RDF>
   <cc:Work rdf:about="">
    <dc:format>image/svg+xml</dc:format>
    <dc:type rdf:resource="http://purl.org/dc/dcmitype/StillImage"/>
    <dc:title/>
   </cc:Work>
  </rdf:RDF>
 </metadata>
 <g id="layer1" fill-rule="evenodd" transform="translate(190.5282,-371.4277)" stroke="#171717" fill="#e8e8e8">
  <path id="path2385" d="m323.21,360.93-23.813-6.9686-16.062,18.995-0.73123-24.801-23.029-9.4061,23.361-8.3594,1.8294-24.808,15.169,19.635,24.16-5.9264-13.986,20.494z" transform="matrix(3.3912573,1.0370763,-1.0370763,3.3912573,-453.70135,-946.18536)" filter="url(#filter3165)"/>
  <path id="path3817" transform="matrix(3.3912573,1.0370763,-1.0370763,3.3912573,-705.48187,-946.18536)" filter="url(#filter3165)" d="m323.21,360.93-23.813-6.9686-16.062,18.995-0.73123-24.801-23.029-9.4061,23.361-8.3594,1.8294-24.808,15.169,19.635,24.16-5.9264-13.986,20.494z"/>
  <path id="path3827" d="m323.21,360.93-23.813-6.9686-16.062,18.995-0.73123-24.801-23.029-9.4061,23.361-8.3594,1.8294-24.808,15.169,19.635,24.16-5.9264-13.986,20.494z" transform="matrix(3.3912573,1.0370763,-1.0370763,3.3912573,-201.92083,-946.18536)" filter="url(#filter3165)"/>
  <path id="path3837" transform="matrix(3.3912573,1.0370763,-1.0370763,3.3912573,49.85969,-946.18536)" filter="url(#filter3165)" d="m323.21,360.93-23.813-6.9686-16.062,18.995-0.73123-24.801-23.029-9.4061,23.361-8.3594,1.8294-24.808,15.169,19.635,24.16-5.9264-13.986,20.494z"/>
  <path id="path3847" d="m323.21,360.93-23.813-6.9686-16.062,18.995-0.73123-24.801-23.029-9.4061,23.361-8.3594,1.8294-24.808,15.169,19.635,24.16-5.9264-13.986,20.494z" transform="matrix(3.3912573,1.0370763,-1.0370763,3.3912573,301.64021,-946.18536)" filter="url(#filter3165)"/>
 </g>
</svg>
